<?xml version="1.0" encoding="utf-8"?>
<!-- Generator: Adobe Illustrator 23.0.3, SVG Export Plug-In . SVG Version: 6.00 Build 0)  -->
<svg version="1.2" baseProfile="tiny" id="Layer_1" xmlns="http://www.w3.org/2000/svg" xmlns:xlink="http://www.w3.org/1999/xlink"
	 x="0px" y="0px" viewBox="0 0 1268 987.3" xml:space="preserve">
<path d="M119.9,4.2c-8.1,1.3-16,31.3-31.7,46.9C76.7,62.4,62.3,61.7,54.6,75.6c-2.9,5.2-2,14.1-5.2,22.6
	c-6.4,17.1-29.1,18.6-29.1,37.2c-0.1,20.1,18.9,23.9,35.3,38.2c12.8,11.5,14.1,19.4,29.6,24.9c13.2,4.5,32.9-10.2,50.7-4.9
	c14.6,4.3,28.5,7.5,31.8,22.4c2.9,13.8-0.2,35.2-17.9,32.7c-6-0.7-31.8-9.4-63.5-6c-38.3,4.3-81.9,16.8-86.2,59.5
	c-2.4,23.9,27.1,52,55.6,46.3c19.7-3.9,10.4-27.1,21.1-38.4c14.1-14.4,93.7,50.4,167.8,50.4c31.2,0,54.4-7.9,77.4-32
	c2.2-1.8,4.8-5.8,8.1-6c3.1,0.2,8.6,3.3,10.4,4.7c59.6,47.9,104.7,144.1,323.9,145.2c30.8,0.2,66,14.9,94.6,41
	c25.6,23.7,40.5,60.4,55.1,97.8c21.9,56,61.3,110.5,120.9,171.1c3.3,3.2,52.3,41.4,56.2,44.3c0.6,0.4,4.2,9,3,13.8
	c-1.5,36.3-6.7,142.1,72.1,146.8c19.3,1,14.2-12.6,14.2-21.9c0-18.4-3.4-36.7,6.3-55.5c13.3-25.9-28.2-37.9-26.9-93.9
	c0.9-41.8-34.2-34.7-52.1-66.5c-10.3-18.4-19.4-28.2-18.7-50.8c4-127-27-210.4-42.5-230.9c-12.1-15.5-22-21.6-11-28.8
	c65.8-43.4,80.7-83.9,80.7-83.9c35-82.2,66.4-157.3,109.8-190.3c8.7-6.8,31.1-23.5,44.9-30.1c40.5-19.1,61.8-30.6,73.5-42.1
	c18.6-18.1,33.3-55.9,15.5-78.8c-22.2-28.3-60.5-5.8-77.4,4.2c-120.9,71.8-138.7,198.3-180.6,271c-33.4,58.1-87.7,100.7-136.3,104.2
	c-36.4,2.7-75.7-4.7-114.8-21.8c-95.1-41.7-147.1-95.5-159.3-105C566,246.7,367.8,52.1,207.2,44.1c0,0-19.9-39.9-24.9-40.6
	c-11.8-1.5-23.8,23.9-32.4,26.8C141.7,33,128.1,2.9,119.9,4.2"/>
</svg>
