<?xml version="1.0" encoding="utf-8"?>
<!-- Generator: Adobe Illustrator 25.4.1, SVG Export Plug-In . SVG Version: 6.00 Build 0)  -->
<svg version="1.1" id="Layer_1" xmlns="http://www.w3.org/2000/svg" xmlns:xlink="http://www.w3.org/1999/xlink" x="0px" y="0px"
	 viewBox="0 0 652.5 138.7" style="enable-background:new 0 0 652.5 138.7;" xml:space="preserve">
<style type="text/css">
	.st0{fill:#0C0C0C;}
</style>
<g id="Shein_x5F_logo">
	<path class="st0" d="M550.9,0c0.4,0.4,0.7,0.7,1.1,1.1c24.1,22.3,48.3,44.7,72.4,67c0-21.3,0-42.9,0-64.1c9.4,0,18.7,0,28.1,0
		c0,45,0,89.7,0,134.8C628,116,603.5,93,578.6,70.3c0,21.3,0,42.5,0,63.8c-9.4,0-18.4,0-27.7,0C550.9,89.7,550.9,44.7,550.9,0"/>
	<path class="st0" d="M9.7,20.9C17.3,9.7,30.6,3.6,43.6,2.2C63.4,0.4,85,3.6,100.5,17.3c-6.5,6.1-13.3,11.9-19.8,18
		c-7.2-6.5-16.9-9.7-26.7-9.7c-7.2-0.4-14.8,2.2-18.7,8.3c-2.9,4.3-1.8,10.8,2.2,14.1c6.5,5.4,14.8,7.9,22.7,10.8
		c11.5,3.6,23.1,7.6,32.4,15.5c13,10.5,15.9,31.7,5.8,45c-8.6,11.5-22.7,17.7-36.8,18.7c-12.6,0.4-25.2,0-37.1-4.3
		c-9-2.9-16.9-7.9-24.5-13.3c6.5-6.1,13.3-12.2,19.8-18.4c11.2,8.6,25.6,13.3,39.6,11.5c6.1-1.1,12.6-4.3,14.8-10.4
		c1.4-5.4-1.8-10.8-6.5-13.3c-14.4-8.3-31.3-10.1-45.4-19.1C14.8,65.9,8.3,58.7,5.8,50.1C2.9,40,4,29.2,9.7,20.9"/>
	<path class="st0" d="M152.4,4.3c9.4,0,18.7,0,28.1,0c0,17.3,0,34.2,0,51.5c19.1,0,37.8,0,56.9,0c0-17.3,0-34.2,0-51.5
		c9.4,0,19.1,0,28.5,0c0,43.6,0,86.8,0,130.4c-9.4,0-19.1,0-28.5,0c0-19.1,0-38.6,0-57.6c-19.1,0-37.8,0-56.9,0
		c0,19.1,0,38.6,0,57.6c-9.4,0-18.7,0-28.1,0C152.4,91.5,152.4,47.9,152.4,4.3"/>
	<path class="st0" d="M321,4.3c32.1,0,63.8,0,95.8,0c0,6.8,0,14.1,0,20.9c-22.7,0-45.4,0-68.1,0c0,10.4,0,20.5,0,31
		c22.3,0,44.7,0,67,0c0,6.8,0,13.7,0,20.5c-22.3,0-44.7,0-67,0c0,11.9,0,23.8,0,35.7c22.7,0,45.4,0,68.1,0c0,7.6,0,14.8,0,22.3
		c-32.1,0-63.8,0-95.8,0C321,91.5,321,47.9,321,4.3"/>
	<path class="st0" d="M466.9,4.3c9.4,0,18.7,0,28.1,0c0,43.6,0,86.8,0,130.4c-9.4,0-18.7,0-28.1,0C466.9,91.5,466.9,47.9,466.9,4.3"
		/>
</g>
</svg>
